<svg width="300" height="300" viewBox="0 0 300 300" xmlns="http://www.w3.org/2000/svg">
  <defs>
    <linearGradient id="bgGradient" x1="0%" y1="0%" x2="100%" y2="100%">
      <stop offset="0%" stop-color="#0066cc" />
      <stop offset="100%" stop-color="#003366" />
    </linearGradient>
    <filter id="shadow" x="-20%" y="-20%" width="140%" height="140%">
      <feGaussianBlur in="SourceAlpha" stdDeviation="3" />
      <feOffset dx="2" dy="2" result="offsetblur" />
      <feComponentTransfer>
        <feFuncA type="linear" slope="0.5" />
      </feComponentTransfer>
      <feMerge>
        <feMergeNode />
        <feMergeNode in="SourceGraphic" />
      </feMerge>
    </filter>
  </defs>
  
  <!-- Background circle -->
  <circle cx="150" cy="150" r="140" fill="url(#bgGradient)" />
  
  <!-- Data visualization elements -->
  <g fill="none" stroke="#ffffff" stroke-width="3" opacity="0.7">
    <!-- Grid lines -->
    <line x1="70" y1="200" x2="230" y2="200" />
    <line x1="70" y1="160" x2="230" y2="160" />
    <line x1="70" y1="120" x2="230" y2="120" />
    <line x1="70" y1="80" x2="230" y2="80" />
    
    <!-- Vertical grid lines -->
    <line x1="90" y1="70" x2="90" y2="210" />
    <line x1="130" y1="70" x2="130" y2="210" />
    <line x1="170" y1="70" x2="170" y2="210" />
    <line x1="210" y1="70" x2="210" y2="210" />
  </g>
  
  <!-- Data line with outliers and refinement -->
  <polyline points="70,180 90,170 110,160 130,155 150,120 170,140 190,80 210,90 230,100" 
          stroke="#ff6b6b" stroke-width="3" fill="none" />
          
  <!-- Refined data line -->
  <polyline points="70,180 90,170 110,160 130,155 150,145 170,140 190,130 210,120 230,100" 
          stroke="#4ecdc4" stroke-width="4" fill="none" filter="url(#shadow)" />
  
  <!-- Outlier points -->
  <circle cx="150" cy="120" r="8" fill="#ff6b6b" />
  <circle cx="190" cy="80" r="8" fill="#ff6b6b" />
  
  <!-- MDR text -->
  <text x="150" y="245" font-family="Arial, sans-serif" font-size="45" font-weight="bold" fill="white" text-anchor="middle">MDR</text>
  
  <!-- Tagline -->
  <text x="150" y="270" font-family="Arial, sans-serif" font-size="12" fill="white" text-anchor="middle">Macrodata Refinement</text>
</svg>