<svg width="800" height="300" viewBox="0 0 800 300" xmlns="http://www.w3.org/2000/svg">
  <defs>
    <filter id="dropshadow" x="-20%" y="-20%" width="140%" height="140%">
      <feGaussianBlur in="SourceAlpha" stdDeviation="2" />
      <feOffset dx="2" dy="2" result="offsetblur" />
      <feComponentTransfer>
        <feFuncA type="linear" slope="0.3" />
      </feComponentTransfer>
      <feMerge>
        <feMergeNode />
        <feMergeNode in="SourceGraphic" />
      </feMerge>
    </filter>
    <!-- Box gradients -->
    <linearGradient id="rawGradient" x1="0%" y1="0%" x2="0%" y2="100%">
      <stop offset="0%" stop-color="#ffebee" />
      <stop offset="100%" stop-color="#ffcdd2" />
    </linearGradient>
    <linearGradient id="validationGradient" x1="0%" y1="0%" x2="0%" y2="100%">
      <stop offset="0%" stop-color="#fff8e1" />
      <stop offset="100%" stop-color="#ffe082" />
    </linearGradient>
    <linearGradient id="refinementGradient" x1="0%" y1="0%" x2="0%" y2="100%">
      <stop offset="0%" stop-color="#e8f5e9" />
      <stop offset="100%" stop-color="#a5d6a7" />
    </linearGradient>
    <linearGradient id="transformationGradient" x1="0%" y1="0%" x2="0%" y2="100%">
      <stop offset="0%" stop-color="#e3f2fd" />
      <stop offset="100%" stop-color="#90caf9" />
    </linearGradient>
    <linearGradient id="outputGradient" x1="0%" y1="0%" x2="0%" y2="100%">
      <stop offset="0%" stop-color="#f3e5f5" />
      <stop offset="100%" stop-color="#ce93d8" />
    </linearGradient>
    <!-- Arrow marker -->
    <marker id="arrow" markerWidth="10" markerHeight="7" refX="9" refY="3.5" orient="auto">
      <polygon points="0 0, 10 3.5, 0 7" fill="#555" />
    </marker>
  </defs>
  
  <!-- Title -->
  <text x="400" y="40" font-family="Arial, sans-serif" font-size="24" font-weight="bold" text-anchor="middle">MDR Refinement Workflow</text>
  
  <!-- Process boxes -->
  <!-- Raw Data -->
  <g transform="translate(40, 100)" filter="url(#dropshadow)">
    <rect x="0" y="0" width="120" height="80" rx="8" ry="8" fill="url(#rawGradient)" stroke="#c62828" stroke-width="2" />
    <text x="60" y="35" font-family="Arial, sans-serif" font-size="14" font-weight="bold" text-anchor="middle">Raw Data</text>
    <text x="60" y="55" font-family="Arial, sans-serif" font-size="10" text-anchor="middle">Outliers, Missing</text>
    <text x="60" y="70" font-family="Arial, sans-serif" font-size="10" text-anchor="middle">Values, Noise</text>
  </g>
  
  <!-- Validation -->
  <g transform="translate(210, 100)" filter="url(#dropshadow)">
    <rect x="0" y="0" width="120" height="80" rx="8" ry="8" fill="url(#validationGradient)" stroke="#f57f17" stroke-width="2" />
    <text x="60" y="35" font-family="Arial, sans-serif" font-size="14" font-weight="bold" text-anchor="middle">Validation</text>
    <text x="60" y="55" font-family="Arial, sans-serif" font-size="10" text-anchor="middle">Range, Missing,</text>
    <text x="60" y="70" font-family="Arial, sans-serif" font-size="10" text-anchor="middle">Outlier Checks</text>
  </g>
  
  <!-- Refinement -->
  <g transform="translate(380, 100)" filter="url(#dropshadow)">
    <rect x="0" y="0" width="120" height="80" rx="8" ry="8" fill="url(#refinementGradient)" stroke="#2e7d32" stroke-width="2" />
    <text x="60" y="35" font-family="Arial, sans-serif" font-size="14" font-weight="bold" text-anchor="middle">Refinement</text>
    <text x="60" y="55" font-family="Arial, sans-serif" font-size="10" text-anchor="middle">Outlier Removal,</text>
    <text x="60" y="70" font-family="Arial, sans-serif" font-size="10" text-anchor="middle">Imputation, Smoothing</text>
  </g>
  
  <!-- Transformation -->
  <g transform="translate(550, 100)" filter="url(#dropshadow)">
    <rect x="0" y="0" width="120" height="80" rx="8" ry="8" fill="url(#transformationGradient)" stroke="#1565c0" stroke-width="2" />
    <text x="60" y="35" font-family="Arial, sans-serif" font-size="14" font-weight="bold" text-anchor="middle">Transformation</text>
    <text x="60" y="55" font-family="Arial, sans-serif" font-size="10" text-anchor="middle">Normalization,</text>
    <text x="60" y="70" font-family="Arial, sans-serif" font-size="10" text-anchor="middle">Scaling, Conversion</text>
  </g>
  
  <!-- Output -->
  <g transform="translate(720, 100)" filter="url(#dropshadow)">
    <rect x="0" y="0" width="40" height="80" rx="8" ry="8" fill="url(#outputGradient)" stroke="#7b1fa2" stroke-width="2" />
    <text x="30" y="55" font-family="Arial, sans-serif" font-size="14" font-weight="bold" text-anchor="middle" transform="rotate(-90, 20, 50)">OUTPUT</text>
  </g>
  
  <!-- Connection arrows -->
  <line x1="160" y1="140" x2="210" y2="140" stroke="#555" stroke-width="2" marker-end="url(#arrow)" />
  <line x1="330" y1="140" x2="380" y2="140" stroke="#555" stroke-width="2" marker-end="url(#arrow)" />
  <line x1="500" y1="140" x2="550" y2="140" stroke="#555" stroke-width="2" marker-end="url(#arrow)" />
  <line x1="670" y1="140" x2="720" y2="140" stroke="#555" stroke-width="2" marker-end="url(#arrow)" />
  
  <!-- Data visualizations -->
  <!-- Raw data with issues -->
  <g transform="translate(70, 200)">
    <line x1="0" y1="20" x2="60" y2="20" stroke="#999" stroke-width="1" stroke-dasharray="2,2" />
    <polyline points="5,30 15,22 25,35 35,10 45,25 55,18" fill="none" stroke="#c62828" stroke-width="2" />
    <circle cx="35" cy="10" r="3" fill="#c62828" />
    <text x="30" y="50" font-family="Arial, sans-serif" font-size="9" text-anchor="middle" fill="#666">Missing &amp; Outliers</text>
  </g>
  
  <!-- Validation visualization -->
  <g transform="translate(240, 200)">
    <line x1="0" y1="20" x2="60" y2="20" stroke="#999" stroke-width="1" stroke-dasharray="2,2" />
    <polyline points="5,30 15,22 25,35 35,10 45,25 55,18" fill="none" stroke="#c62828" stroke-width="2" />
    <circle cx="35" cy="10" r="3" fill="#c62828" stroke="#f57f17" stroke-width="2" />
    <rect x="33" y="8" width="4" height="4" fill="none" stroke="#f57f17" stroke-width="1" />
    <text x="30" y="50" font-family="Arial, sans-serif" font-size="9" text-anchor="middle" fill="#666">Issues Identified</text>
  </g>
  
  <!-- Refinement visualization -->
  <g transform="translate(410, 200)">
    <line x1="0" y1="20" x2="60" y2="20" stroke="#999" stroke-width="1" stroke-dasharray="2,2" />
    <polyline points="5,30 15,22 25,28 35,20 45,25 55,18" fill="none" stroke="#2e7d32" stroke-width="2" />
    <polyline points="5,30 15,22 25,35 35,10 45,25 55,18" fill="none" stroke="#c62828" stroke-width="1" opacity="0.3" />
    <text x="30" y="50" font-family="Arial, sans-serif" font-size="9" text-anchor="middle" fill="#666">Issues Corrected</text>
  </g>
  
  <!-- Transformation visualization -->
  <g transform="translate(580, 200)">
    <line x1="0" y1="20" x2="60" y2="20" stroke="#999" stroke-width="1" stroke-dasharray="2,2" />
    <line x1="0" y1="35" x2="60" y2="35" stroke="#999" stroke-width="1" stroke-dasharray="2,2" />
    <polyline points="5,30 15,27 25,25 35,22 45,20 55,18" fill="none" stroke="#1565c0" stroke-width="2" />
    <text x="30" y="50" font-family="Arial, sans-serif" font-size="9" text-anchor="middle" fill="#666">Normalized Data</text>
  </g>
</svg>